<svg xmlns="http://www.w3.org/2000/svg" viewBox="0 0 512 512">
  <defs>
    <linearGradient id="bg" x1="0" y1="0" x2="1" y2="1">
      <stop offset="0" stop-color="#f43f5e"/>
      <stop offset="0.52" stop-color="#8b5cf6"/>
      <stop offset="1" stop-color="#22d3ee"/>
    </linearGradient>
    <radialGradient id="shade" cx="50%" cy="42%" r="70%">
      <stop offset="0" stop-color="#ffffff" stop-opacity="0.18"/>
      <stop offset="1" stop-color="#020617" stop-opacity="0.35"/>
    </radialGradient>
    <filter id="shadow" x="-20%" y="-20%" width="140%" height="140%">
      <feDropShadow dx="0" dy="18" stdDeviation="18" flood-color="#000" flood-opacity="0.35"/>
    </filter>
  </defs>
  <rect width="512" height="512" rx="112" fill="#020617"/>
  <rect width="512" height="512" rx="112" fill="url(#bg)"/>
  <rect width="512" height="512" rx="112" fill="url(#shade)"/>
  <g filter="url(#shadow)">
    <rect x="74" y="90" width="364" height="332" rx="56" fill="#ffffff" fill-opacity="0.18" stroke="#ffffff" stroke-opacity="0.32" stroke-width="4"/>
    <rect x="114" y="122" width="284" height="12" rx="6" fill="#ef4444"/>
    <rect x="114" y="136" width="284" height="12" rx="6" fill="#ffffff"/>
    <rect x="114" y="150" width="284" height="12" rx="6" fill="#2563eb"/>
    <text x="256" y="248" text-anchor="middle" font-family="Inter, Arial, sans-serif" font-size="126" font-weight="900" fill="#fff">SR</text>
    <rect x="174" y="232" width="164" height="60" rx="30" fill="#020617" fill-opacity="0.9" stroke="#fff" stroke-opacity="0.22"/>
    <text x="256" y="272" text-anchor="middle" font-family="Inter, Arial, sans-serif" font-size="34" font-weight="800" fill="#fff">15 min</text>
    <path d="M128 302c0-14 11-25 25-25h88c8 0 15 7 15 15v82c0 8-7 15-15 15h-88c-14 0-25-11-25-25v-62z" fill="#fff" fill-opacity="0.86"/>
    <path d="M256 292c0-8 7-15 15-15h88c14 0 25 11 25 25v62c0 14-11 25-25 25h-88c-8 0-15-7-15-15v-82z" fill="#fff" fill-opacity="0.86"/>
    <path d="M256 294v88" stroke="#020617" stroke-opacity="0.35" stroke-width="5" stroke-linecap="round"/>
  </g>
</svg>